<svg width="500" height="109" viewBox="0 0 500 109" fill="none" xmlns="http://www.w3.org/2000/svg">
<path fill-rule="evenodd" clip-rule="evenodd" d="M122.553 54.2216C122.553 84.1674 146.787 108.443 176.682 108.443C206.563 108.413 230.78 84.1549 230.81 54.2216C230.81 24.2758 206.576 0 176.682 0C146.787 0 122.553 24.2758 122.553 54.2216ZM135.953 54.276C135.953 31.7435 154.188 13.4229 176.681 13.4229C198.834 13.4228 217.44 31.9813 217.41 54.276C217.41 76.8086 199.175 95.0748 176.681 95.0748C154.188 95.0748 135.953 76.8086 135.953 54.276ZM500 2.4751H397.078V15.9523H500V2.4751ZM397.078 47.626H500V61.1032H397.078V47.626ZM397.078 92.79H500V106.267H397.078V92.79ZM362.676 1.93115H258.75V106.036H362.676V1.93115ZM349.222 15.4087V92.5592H272.204V15.4087H349.222ZM0 2.21674H13.4541V106.226H0V2.21674ZM38.3665 54.4528L89.5897 105.764L99.0931 96.2444L57.3868 54.4528L99.5547 12.1989L90.0513 2.6792L38.3665 54.4528Z" fill="white"/>
</svg>
